<?xml version="1.0" encoding="utf-8"?>
<svg version="1.1" id="Layer_1" xmlns="http://www.w3.org/2000/svg" xmlns:xlink="http://www.w3.org/1999/xlink" xmlns:ev="http://www.w3.org/2001/xml-events" x="0px" y="0px"
	 width="133.615px" height="22px" viewBox="13.192 2.172 133.615 22" enable-background="new 13.192 2.172 133.615 22"
	 xml:space="preserve">
<g>
	<rect x="13.192" y="2.172" fill="#ED253E" width="133.615" height="22"/>
	<g>
		<path fill="#F1F1F2" d="M27.342,7.229v0.958h-5.376v3.759h4.738v0.978h-4.738v5.677h-2.783V7.229H27.342z"/>
		<path fill="#F1F1F2" d="M29.345,7.285c0-0.175,0.036-0.339,0.108-0.494c0.072-0.153,0.171-0.288,0.295-0.403
			s0.273-0.207,0.442-0.273c0.169-0.065,0.351-0.099,0.545-0.099c0.194,0,0.378,0.033,0.55,0.099
			c0.173,0.066,0.321,0.157,0.447,0.273c0.125,0.116,0.227,0.25,0.301,0.403c0.075,0.154,0.112,0.318,0.112,0.494
			c0,0.176-0.038,0.34-0.112,0.493c-0.075,0.155-0.175,0.289-0.301,0.405c-0.125,0.115-0.274,0.207-0.447,0.272
			c-0.173,0.066-0.356,0.099-0.55,0.099c-0.194,0-0.375-0.033-0.545-0.099c-0.17-0.065-0.316-0.157-0.442-0.272
			c-0.125-0.116-0.224-0.251-0.295-0.405C29.38,7.625,29.345,7.461,29.345,7.285z M29.458,10.49l2.594-0.714v8.826h-2.594V10.49z"/>
		<path fill="#F1F1F2" d="M39.515,12.728c0-0.438-0.086-0.774-0.259-1.006c-0.173-0.232-0.375-0.348-0.606-0.348
			c-0.112,0-0.241,0.021-0.385,0.066c-0.145,0.044-0.295,0.108-0.456,0.192c-0.16,0.084-0.323,0.185-0.488,0.3
			c-0.166,0.116-0.328,0.247-0.484,0.39v6.279h-2.613V10.03h2.613v0.667c0.395-0.295,0.822-0.508,1.284-0.644
			c0.46-0.134,0.919-0.202,1.377-0.202c0.351,0,0.685,0.069,1.001,0.207c0.316,0.138,0.594,0.324,0.832,0.559
			s0.428,0.511,0.569,0.828c0.14,0.316,0.211,0.656,0.211,1.02v6.138h-2.594L39.515,12.728L39.515,12.728z"/>
		<path fill="#F1F1F2" d="M49.732,18.094c-0.313,0.219-0.66,0.391-1.039,0.513s-0.747,0.183-1.105,0.183
			c-0.54,0-1.044-0.12-1.518-0.362c-0.473-0.241-0.885-0.564-1.236-0.968s-0.626-0.871-0.828-1.4
			c-0.201-0.53-0.301-1.083-0.301-1.658c0-0.571,0.124-1.13,0.372-1.679c0.248-0.547,0.585-1.034,1.01-1.456
			c0.426-0.424,0.927-0.765,1.5-1.025c0.573-0.26,1.186-0.39,1.838-0.39c0.251,0,0.487,0.02,0.71,0.061
			c0.222,0.041,0.421,0.095,0.597,0.164V6.58l2.594-0.724v12.746h-2.594V18.094z M49.732,12.765c0-0.275-0.044-0.528-0.131-0.756
			c-0.088-0.228-0.203-0.424-0.343-0.587c-0.141-0.163-0.301-0.291-0.48-0.381c-0.178-0.09-0.355-0.136-0.531-0.136
			c-0.239,0-0.464,0.075-0.677,0.226s-0.4,0.36-0.56,0.63c-0.159,0.269-0.287,0.59-0.381,0.962
			c-0.094,0.373-0.141,0.779-0.141,1.218c0,0.476,0.053,0.93,0.16,1.358c0.106,0.43,0.252,0.809,0.437,1.137
			c0.185,0.329,0.399,0.591,0.644,0.784c0.244,0.194,0.507,0.292,0.789,0.292c0.1,0,0.206-0.016,0.315-0.047s0.22-0.073,0.329-0.127
			c0.11-0.053,0.213-0.118,0.311-0.192c0.097-0.075,0.183-0.158,0.259-0.253v-4.128H49.732z"/>
		<path fill="#F1F1F2" d="M65.778,18.602h-2.613v-0.686c-0.144,0.119-0.285,0.23-0.422,0.333s-0.29,0.192-0.456,0.268
			s-0.357,0.135-0.574,0.18c-0.216,0.044-0.468,0.065-0.757,0.065c-0.395,0-0.75-0.056-1.067-0.17
			c-0.316-0.112-0.585-0.268-0.803-0.465c-0.219-0.197-0.388-0.434-0.507-0.706c-0.12-0.271-0.179-0.564-0.179-0.878
			c0-0.332,0.063-0.631,0.188-0.893c0.125-0.264,0.296-0.502,0.512-0.714c0.216-0.215,0.47-0.404,0.761-0.575
			c0.292-0.168,0.603-0.323,0.936-0.465c0.332-0.141,0.676-0.27,1.029-0.386c0.354-0.116,0.707-0.23,1.058-0.343l0.281-0.066v-0.855
			c0-0.544-0.104-0.932-0.315-1.161c-0.209-0.229-0.487-0.343-0.832-0.343c-0.207,0-0.38,0.026-0.522,0.08
			c-0.14,0.052-0.253,0.127-0.338,0.221c-0.084,0.093-0.144,0.202-0.179,0.324c-0.034,0.122-0.052,0.253-0.052,0.391
			c0,0.163-0.018,0.32-0.052,0.469c-0.035,0.15-0.096,0.284-0.184,0.4c-0.087,0.116-0.208,0.208-0.362,0.277
			s-0.349,0.104-0.587,0.104c-0.37,0-0.667-0.105-0.893-0.315c-0.226-0.21-0.338-0.471-0.338-0.785c0-0.301,0.1-0.578,0.3-0.832
			c0.201-0.254,0.473-0.473,0.818-0.658c0.345-0.185,0.743-0.329,1.194-0.433c0.452-0.104,0.927-0.155,1.429-0.155
			c0.614,0,1.144,0.054,1.588,0.165c0.445,0.109,0.81,0.266,1.095,0.469c0.286,0.204,0.497,0.449,0.635,0.738
			c0.138,0.288,0.207,0.61,0.207,0.968V18.602z M63.165,14.165c-0.25,0.107-0.504,0.231-0.761,0.372
			c-0.257,0.142-0.489,0.296-0.696,0.465c-0.207,0.17-0.374,0.349-0.502,0.536c-0.129,0.188-0.193,0.387-0.193,0.592
			c0,0.163,0.021,0.318,0.065,0.467s0.102,0.275,0.174,0.386c0.072,0.109,0.155,0.196,0.249,0.262c0.093,0.066,0.194,0.1,0.301,0.1
			c0.207,0,0.419-0.065,0.639-0.197c0.219-0.132,0.461-0.296,0.724-0.49L63.165,14.165L63.165,14.165z"/>
		<path fill="#F1F1F2" d="M67.451,11.073v-0.855c0.307,0,0.597-0.077,0.87-0.229c0.272-0.154,0.521-0.363,0.742-0.63
			c0.222-0.266,0.414-0.576,0.574-0.93c0.161-0.354,0.277-0.732,0.353-1.133h1.438v2.735h2.115v1.043h-2.115v5.537
			c0,0.174,0.044,0.326,0.132,0.45c0.088,0.125,0.21,0.188,0.367,0.188c0.094,0,0.193-0.029,0.296-0.089
			c0.104-0.06,0.204-0.129,0.3-0.212c0.097-0.081,0.183-0.162,0.259-0.244c0.075-0.081,0.128-0.144,0.16-0.188l0.903,0.705
			c-0.145,0.22-0.302,0.425-0.475,0.616c-0.173,0.19-0.371,0.356-0.597,0.498c-0.227,0.141-0.484,0.254-0.776,0.334
			c-0.292,0.081-0.628,0.121-1.011,0.121c-0.357,0-0.672-0.052-0.944-0.156c-0.272-0.103-0.499-0.246-0.677-0.432
			s-0.313-0.406-0.404-0.663c-0.091-0.257-0.136-0.541-0.136-0.855v-5.611H67.451z"/>
		<path fill="#F1F1F2" d="M79.953,7.229h4.879c0.658,0,1.26,0.069,1.805,0.207c0.545,0.138,1.014,0.333,1.405,0.587
			c0.393,0.254,0.697,0.56,0.917,0.917c0.22,0.357,0.329,0.754,0.329,1.194c0,0.269-0.029,0.519-0.089,0.747
			c-0.059,0.229-0.156,0.443-0.291,0.644c-0.136,0.2-0.314,0.393-0.538,0.577c-0.222,0.185-0.495,0.371-0.821,0.559
			c0.332,0.107,0.641,0.25,0.923,0.429c0.282,0.179,0.523,0.387,0.728,0.625c0.203,0.237,0.363,0.499,0.479,0.784
			c0.117,0.285,0.175,0.591,0.175,0.916c0,0.445-0.103,0.862-0.305,1.251c-0.203,0.39-0.495,0.726-0.871,1.01
			c-0.375,0.286-0.828,0.512-1.356,0.678c-0.531,0.167-1.118,0.25-1.764,0.25h-5.602V7.229H79.953z M82.735,12.154h1.852
			c0.295,0,0.559-0.048,0.791-0.141c0.23-0.094,0.427-0.223,0.587-0.386c0.159-0.163,0.282-0.358,0.366-0.587
			c0.084-0.228,0.126-0.478,0.126-0.748c0-0.294-0.053-0.566-0.159-0.813C86.19,9.231,86.03,9.02,85.813,8.845
			s-0.494-0.312-0.831-0.409c-0.339-0.097-0.737-0.146-1.194-0.146h-1.055v3.864H82.735z M82.735,17.437h1.542
			c0.451,0,0.843-0.05,1.175-0.146s0.606-0.233,0.822-0.409c0.217-0.176,0.375-0.38,0.479-0.615
			c0.104-0.234,0.156-0.494,0.156-0.774c0-0.32-0.048-0.616-0.141-0.889c-0.095-0.272-0.249-0.509-0.466-0.71
			c-0.217-0.202-0.499-0.358-0.846-0.47c-0.349-0.113-0.774-0.169-1.274-0.169h-1.447V17.437z"/>
		<path fill="#F1F1F2" d="M95.782,18.79c-0.613,0-1.188-0.112-1.72-0.338c-0.534-0.226-0.999-0.529-1.401-0.912
			c-0.4-0.382-0.716-0.828-0.945-1.34c-0.229-0.511-0.343-1.047-0.343-1.611c0-0.678,0.107-1.304,0.32-1.88
			c0.213-0.577,0.514-1.077,0.902-1.5c0.389-0.422,0.855-0.754,1.405-0.995c0.548-0.241,1.158-0.362,1.827-0.362
			c0.603,0,1.15,0.095,1.646,0.287c0.495,0.191,0.919,0.451,1.273,0.78c0.354,0.33,0.63,0.717,0.826,1.166
			c0.197,0.449,0.296,0.926,0.296,1.434h-5.939c0.019,0.476,0.087,0.931,0.201,1.363c0.117,0.433,0.276,0.812,0.479,1.142
			c0.204,0.329,0.441,0.59,0.714,0.784s0.575,0.292,0.907,0.292c0.289,0,0.571-0.051,0.847-0.15c0.276-0.101,0.53-0.234,0.767-0.404
			c0.234-0.169,0.437-0.367,0.609-0.597c0.173-0.229,0.296-0.471,0.372-0.729l1.334,0.197c-0.132,0.465-0.344,0.901-0.639,1.312
			c-0.296,0.411-0.642,0.771-1.039,1.077c-0.398,0.307-0.83,0.548-1.297,0.724C96.72,18.702,96.252,18.79,95.782,18.79z
			 M96.882,12.633c-0.019-0.251-0.072-0.481-0.159-0.69c-0.088-0.21-0.2-0.391-0.339-0.541c-0.137-0.151-0.295-0.267-0.475-0.348
			c-0.178-0.081-0.37-0.122-0.577-0.122c-0.162,0-0.321,0.042-0.474,0.122c-0.154,0.082-0.297,0.196-0.424,0.343
			c-0.128,0.148-0.236,0.327-0.324,0.536c-0.088,0.21-0.146,0.443-0.17,0.701L96.882,12.633L96.882,12.633z"/>
		<path fill="#F1F1F2" d="M104.345,18.602h-2.593V10.03h2.593v0.639c0.296-0.294,0.613-0.532,0.955-0.714
			c0.343-0.181,0.711-0.273,1.104-0.273c0.232,0,0.449,0.032,0.653,0.094c0.204,0.063,0.382,0.147,0.536,0.254
			c0.153,0.107,0.274,0.23,0.362,0.371c0.087,0.141,0.131,0.291,0.131,0.447c0,0.15-0.029,0.29-0.088,0.418
			c-0.06,0.127-0.143,0.236-0.245,0.324c-0.104,0.087-0.224,0.157-0.357,0.207c-0.135,0.05-0.28,0.075-0.437,0.075
			c-0.207,0-0.376-0.032-0.508-0.099c-0.13-0.066-0.252-0.136-0.362-0.211c-0.11-0.075-0.22-0.146-0.329-0.212
			c-0.11-0.065-0.249-0.099-0.419-0.099c-0.087,0-0.175,0.034-0.262,0.099c-0.088,0.065-0.174,0.154-0.259,0.263
			c-0.085,0.11-0.168,0.236-0.25,0.381c-0.081,0.145-0.156,0.291-0.227,0.442V18.602L104.345,18.602z"/>
		<path fill="#F1F1F2" d="M111.696,12.953l3.395-3.083h1.889l-3.788,3.431l4.56,5.301h-3.083l-2.972-3.449v3.449h-2.613V6.58
			l2.613-0.724V12.953z"/>
		<path fill="#F1F1F2" d="M121.171,18.602h-2.576V6.58l2.576-0.724V18.602z"/>
		<path fill="#F1F1F2" d="M127.262,18.79c-0.613,0-1.188-0.112-1.721-0.338c-0.532-0.226-1-0.529-1.4-0.912
			c-0.4-0.382-0.716-0.828-0.945-1.34c-0.228-0.51-0.343-1.047-0.343-1.611c0-0.678,0.106-1.304,0.319-1.88
			c0.214-0.577,0.514-1.077,0.902-1.5c0.389-0.422,0.858-0.754,1.406-0.995c0.549-0.241,1.158-0.362,1.828-0.362
			c0.602,0,1.149,0.095,1.645,0.287c0.495,0.191,0.921,0.451,1.273,0.78c0.354,0.33,0.63,0.717,0.827,1.166
			c0.197,0.449,0.295,0.926,0.295,1.434h-5.939c0.019,0.476,0.086,0.931,0.202,1.363s0.275,0.812,0.479,1.142
			c0.204,0.329,0.442,0.59,0.714,0.784c0.273,0.194,0.575,0.292,0.908,0.292c0.288,0,0.57-0.051,0.846-0.15
			c0.276-0.101,0.531-0.234,0.766-0.404c0.236-0.169,0.438-0.367,0.611-0.597c0.172-0.229,0.295-0.471,0.37-0.729l1.336,0.197
			c-0.132,0.465-0.345,0.901-0.64,1.312c-0.295,0.411-0.641,0.771-1.039,1.077c-0.397,0.307-0.83,0.548-1.296,0.724
			C128.2,18.704,127.732,18.79,127.262,18.79z M128.362,12.633c-0.018-0.251-0.072-0.481-0.16-0.69
			c-0.087-0.21-0.2-0.391-0.337-0.541c-0.139-0.151-0.297-0.267-0.476-0.348c-0.178-0.081-0.37-0.122-0.577-0.122
			c-0.163,0-0.322,0.042-0.475,0.122c-0.153,0.082-0.295,0.196-0.424,0.343c-0.127,0.148-0.235,0.327-0.324,0.536
			c-0.087,0.21-0.144,0.443-0.168,0.701L128.362,12.633L128.362,12.633z"/>
		<path fill="#F1F1F2" d="M137.244,18.79c-0.614,0-1.188-0.112-1.72-0.338c-0.533-0.226-1-0.529-1.401-0.912
			c-0.4-0.382-0.715-0.828-0.944-1.34c-0.229-0.51-0.343-1.047-0.343-1.611c0-0.678,0.106-1.304,0.32-1.88
			c0.213-0.577,0.514-1.077,0.901-1.5c0.389-0.422,0.856-0.754,1.405-0.995s1.158-0.362,1.828-0.362
			c0.603,0,1.149,0.095,1.646,0.287c0.495,0.191,0.92,0.451,1.273,0.78c0.354,0.33,0.63,0.717,0.826,1.166
			c0.197,0.449,0.296,0.926,0.296,1.434h-5.94c0.019,0.476,0.087,0.931,0.203,1.363c0.115,0.433,0.275,0.812,0.478,1.142
			c0.204,0.329,0.442,0.59,0.714,0.784c0.273,0.194,0.574,0.292,0.908,0.292c0.288,0,0.57-0.051,0.846-0.15
			c0.275-0.101,0.531-0.234,0.767-0.404c0.234-0.169,0.438-0.367,0.61-0.597c0.173-0.229,0.297-0.471,0.371-0.729l1.335,0.197
			c-0.132,0.465-0.345,0.901-0.64,1.312c-0.295,0.411-0.642,0.771-1.038,1.077c-0.399,0.307-0.83,0.548-1.298,0.724
			C138.183,18.704,137.715,18.79,137.244,18.79z M138.345,12.633c-0.019-0.251-0.072-0.481-0.159-0.69
			c-0.088-0.21-0.2-0.391-0.339-0.541c-0.137-0.151-0.295-0.267-0.474-0.348c-0.179-0.081-0.371-0.122-0.578-0.122
			c-0.163,0-0.321,0.042-0.475,0.122c-0.153,0.082-0.295,0.196-0.423,0.343c-0.128,0.148-0.236,0.327-0.324,0.536
			c-0.088,0.21-0.145,0.443-0.17,0.701L138.345,12.633L138.345,12.633z"/>
	</g>
</g>
</svg>
