<?xml version="1.0" encoding="utf-8"?>
<!-- Generator: Adobe Illustrator 16.0.4, SVG Export Plug-In . SVG Version: 6.00 Build 0)  -->
<!DOCTYPE svg PUBLIC "-//W3C//DTD SVG 1.1//EN" "http://www.w3.org/Graphics/SVG/1.1/DTD/svg11.dtd">
<svg version="1.1" id="Layer_1" xmlns="http://www.w3.org/2000/svg" xmlns:xlink="http://www.w3.org/1999/xlink" x="0px" y="0px"
	 width="960.02px" height="124.536px" viewBox="0.019 217.704 960.02 124.536"
	 enable-background="new 0.019 217.704 960.02 124.536" xml:space="preserve">
<title>BCB-Full-Color</title>
<path fill="#FFFFFF" d="M124.978,227.597h17.766c2.08,0.004,4.157,0.152,6.217,0.442c1.961,0.253,3.863,0.846,5.62,1.752
	c1.641,0.858,3.033,2.124,4.042,3.676c1.113,1.89,1.648,4.065,1.54,6.255c0.051,2.407-0.77,4.752-2.31,6.602
	c-1.561,1.832-3.621,3.169-5.929,3.85v0.135c1.487,0.199,2.93,0.641,4.273,1.309c1.237,0.624,2.353,1.464,3.292,2.483
	c0.914,1.047,1.614,2.264,2.06,3.58c0.497,1.383,0.745,2.843,0.731,4.312c0.075,2.21-0.486,4.395-1.617,6.294
	c-1.057,1.666-2.487,3.062-4.177,4.081c-1.785,1.061-3.738,1.809-5.774,2.213c-2.088,0.444-4.217,0.67-6.352,0.674h-19.383V227.597z
	 M135.487,246.653h7.699c0.803,0,1.604-0.09,2.387-0.27c0.75-0.164,1.467-0.458,2.117-0.866c0.632-0.406,1.154-0.961,1.521-1.617
	c0.4-0.745,0.6-1.581,0.578-2.425c0.036-0.866-0.185-1.724-0.635-2.464c-0.413-0.64-0.983-1.163-1.655-1.521
	c-0.72-0.373-1.492-0.632-2.291-0.77c-0.819-0.152-1.65-0.229-2.483-0.231h-7.141v10.163H135.487z M135.487,266.382h9.432
	c0.829-0.001,1.655-0.091,2.464-0.27c0.804-0.168,1.568-0.488,2.252-0.943c0.678-0.451,1.244-1.049,1.655-1.751
	c0.444-0.799,0.664-1.704,0.635-2.618c0.045-0.982-0.254-1.949-0.847-2.733c-0.562-0.695-1.291-1.238-2.117-1.579
	c-0.881-0.364-1.807-0.61-2.753-0.731c-0.912-0.132-1.831-0.203-2.752-0.211h-7.949v10.836H135.487z"/>
<path fill="#FFFFFF" d="M165.977,251.426c-0.046-3.545,0.608-7.064,1.925-10.355c1.203-2.986,3.027-5.683,5.351-7.911
	c2.342-2.214,5.113-3.924,8.142-5.024c6.667-2.334,13.929-2.334,20.595,0c3.029,1.101,5.8,2.811,8.142,5.024
	c2.308,2.227,4.118,4.916,5.312,7.892c2.551,6.655,2.551,14.018,0,20.673c-1.204,2.986-3.027,5.683-5.351,7.911
	c-2.332,2.231-5.096,3.961-8.123,5.082c-6.667,2.331-13.928,2.331-20.596,0c-3.028-1.101-5.799-2.811-8.142-5.024
	c-2.331-2.245-4.155-4.961-5.351-7.968C166.58,258.449,165.932,254.95,165.977,251.426z M176.871,251.426
	c-0.027,2.099,0.325,4.186,1.039,6.159c0.66,1.805,1.682,3.456,3.003,4.851c1.324,1.36,2.917,2.428,4.677,3.138
	c3.918,1.524,8.266,1.524,12.184,0c1.765-0.727,3.358-1.815,4.677-3.195c1.32-1.396,2.342-3.046,3.003-4.851
	c1.389-3.976,1.389-8.305,0-12.28c-0.658-1.812-1.68-3.469-3.003-4.87c-1.319-1.38-2.913-2.468-4.677-3.195
	c-3.917-1.528-8.267-1.528-12.184,0c-1.765,0.727-3.358,1.815-4.677,3.195c-1.324,1.4-2.346,3.058-3.003,4.87
	c-0.688,1.985-1.014,4.078-0.962,6.179H176.871z"/>
<path fill="#FFFFFF" d="M248.166,239.242c-0.902-1.111-2.105-1.94-3.465-2.387c-1.326-0.49-2.725-0.75-4.138-0.77
	c-0.79,0.005-1.578,0.095-2.348,0.27c-0.798,0.178-1.569,0.462-2.291,0.847c-0.695,0.362-1.295,0.883-1.751,1.521
	c-0.462,0.672-0.698,1.475-0.674,2.29c-0.052,1.3,0.556,2.538,1.617,3.292c1.257,0.841,2.632,1.49,4.081,1.925
	c1.643,0.539,3.4,1.078,5.274,1.617c1.827,0.546,3.574,1.329,5.197,2.329c1.627,0.96,3.016,2.276,4.061,3.85
	c1.169,2.018,1.731,4.331,1.617,6.66c0.051,2.394-0.456,4.766-1.482,6.929c-0.943,1.919-2.312,3.598-4.003,4.908
	c-1.723,1.322-3.683,2.302-5.774,2.887c-5.149,1.392-10.595,1.225-15.649-0.481c-2.756-1.007-5.278-2.566-7.41-4.581l7.468-8.219
	c1.031,1.46,2.406,2.644,4.003,3.446c1.582,0.773,3.32,1.175,5.082,1.174c0.875-0.004,1.747-0.107,2.599-0.308
	c0.823-0.183,1.615-0.488,2.348-0.904c0.667-0.381,1.239-0.907,1.674-1.54c0.433-0.656,0.654-1.428,0.635-2.213
	c0.051-1.341-0.57-2.619-1.655-3.407c-1.263-0.914-2.658-1.628-4.138-2.117c-1.655-0.577-3.452-1.161-5.39-1.751
	c-1.885-0.56-3.695-1.349-5.389-2.348c-1.646-0.963-3.059-2.278-4.139-3.85c-1.183-1.915-1.76-4.142-1.655-6.391
	c-0.05-2.336,0.472-4.649,1.521-6.737c0.978-1.893,2.357-3.548,4.042-4.851c1.727-1.325,3.685-2.317,5.774-2.926
	c2.206-0.653,4.494-0.984,6.794-0.981c2.646-0.01,5.28,0.373,7.814,1.136c2.519,0.772,4.838,2.086,6.795,3.85L248.166,239.242z"/>
<path fill="#FFFFFF" d="M272.38,236.875h-13.589v-9.277h37.688v9.297h-13.667v38.304h-10.509v-38.323H272.38z"/>
<path fill="#FFFFFF" d="M299.231,251.426c-0.046-3.545,0.608-7.064,1.925-10.355c1.203-2.986,3.027-5.683,5.351-7.911
	c2.342-2.214,5.113-3.924,8.142-5.024c6.667-2.334,13.929-2.334,20.596,0c3.029,1.101,5.8,2.811,8.142,5.024
	c2.324,2.229,4.148,4.925,5.351,7.911c2.566,6.672,2.566,14.058,0,20.73c-1.203,2.986-3.027,5.683-5.351,7.911
	c-2.342,2.213-5.113,3.923-8.142,5.024c-6.667,2.331-13.928,2.331-20.596,0c-3.028-1.101-5.799-2.811-8.142-5.024
	c-2.339-2.249-4.17-4.973-5.37-7.988C299.834,258.449,299.187,254.95,299.231,251.426z M310.126,251.426
	c-0.027,2.099,0.325,4.186,1.039,6.159c0.66,1.805,1.682,3.456,3.003,4.851c1.324,1.36,2.917,2.428,4.677,3.138
	c3.89,1.499,8.198,1.499,12.088,0c1.765-0.727,3.358-1.815,4.677-3.195c1.32-1.377,2.349-3.008,3.022-4.793
	c1.389-3.976,1.389-8.305,0-12.28c-0.658-1.812-1.679-3.469-3.003-4.87c-1.323-1.389-2.923-2.484-4.696-3.214
	c-3.918-1.528-8.267-1.528-12.184,0c-1.765,0.727-3.358,1.815-4.677,3.195c-1.325,1.4-2.347,3.058-3.003,4.87
	C310.392,247.26,310.072,249.34,310.126,251.426z"/>
<path fill="#FFFFFF" d="M357.784,227.597h14.263l20.249,33.106h0.231v-33.106h10.491v47.601h-13.725l-20.884-33.877h-0.135v33.877
	h-10.51v-47.601H357.784z"/>
<path fill="#FFFFFF" d="M465.805,237.895c-1.346-1.75-3.105-3.139-5.12-4.042c-2.003-0.925-4.184-1.405-6.391-1.405
	c-2.514-0.033-5.004,0.486-7.295,1.521c-2.129,0.975-4.03,2.385-5.582,4.138c-1.58,1.806-2.802,3.896-3.6,6.159
	c-0.861,2.428-1.291,4.988-1.271,7.565c-0.015,2.433,0.396,4.849,1.213,7.141c0.771,2.185,1.961,4.199,3.504,5.928
	c1.553,1.728,3.455,3.106,5.581,4.042c2.356,1.02,4.902,1.525,7.469,1.482c2.502,0.057,4.979-0.519,7.198-1.674
	c2.094-1.144,3.893-2.758,5.255-4.716l5.447,4.1c-0.594,0.748-1.236,1.455-1.925,2.117c-1.072,1.056-2.269,1.98-3.561,2.752
	c-1.684,1.013-3.479,1.827-5.352,2.425c-2.341,0.732-4.784,1.083-7.236,1.039c-3.52,0.054-7.006-0.683-10.202-2.156
	c-8.692-4.122-14.252-12.862-14.301-22.481c-0.039-3.484,0.575-6.944,1.809-10.202c1.139-3.006,2.866-5.755,5.082-8.084
	c2.211-2.294,4.88-4.098,7.834-5.293c3.209-1.301,6.643-1.956,10.105-1.925c3.173,0.002,6.316,0.617,9.258,1.809
	c2.938,1.149,5.508,3.08,7.43,5.582L465.805,237.895z"/>
<path fill="#FFFFFF" d="M501.875,276.449c-3.438,0.037-6.848-0.618-10.027-1.925c-2.944-1.206-5.61-3-7.834-5.274
	c-2.21-2.29-3.949-4.991-5.12-7.95c-2.468-6.365-2.468-13.422,0-19.787c1.172-2.958,2.911-5.659,5.12-7.949
	c2.225-2.273,4.891-4.068,7.834-5.274c6.44-2.557,13.615-2.557,20.057,0c2.942,1.207,5.608,3.001,7.834,5.274
	c2.207,2.292,3.946,4.992,5.119,7.949c2.468,6.365,2.468,13.422,0,19.787c-1.172,2.958-2.911,5.659-5.119,7.95
	c-2.235,2.284-4.914,4.085-7.873,5.293C508.695,275.838,505.299,276.486,501.875,276.449z M501.875,270.386
	c4.948,0.088,9.697-1.943,13.051-5.582c1.598-1.749,2.834-3.796,3.638-6.025c1.707-4.766,1.707-9.978,0-14.744
	c-0.804-2.229-2.04-4.276-3.638-6.025c-6.715-7.213-18.005-7.617-25.218-0.902c-0.312,0.29-0.612,0.59-0.902,0.902
	c-1.599,1.749-2.835,3.796-3.638,6.025c-1.705,4.767-1.705,9.977,0,14.744c0.789,2.232,2.013,4.287,3.6,6.044
	c3.366,3.654,8.141,5.688,13.107,5.582V270.386z"/>
<path fill="#FFFFFF" d="M536.002,227.597h8.47l26.255,39.17h0.134v-39.17h6.448v47.601h-8.219l-26.428-39.131h-0.192v39.131h-6.468
	V227.597z"/>
<path fill="#FFFFFF" d="M590.994,265.285c1.1,1.683,2.655,3.019,4.485,3.85c1.76,0.821,3.678,1.248,5.62,1.251
	c1.115-0.005,2.225-0.174,3.291-0.5c1.1-0.328,2.136-0.842,3.061-1.521c0.912-0.665,1.679-1.51,2.252-2.483
	c0.593-1.042,0.893-2.227,0.866-3.426c0.106-1.601-0.541-3.161-1.751-4.215c-1.307-1.043-2.776-1.863-4.351-2.425
	c-1.732-0.655-3.618-1.296-5.659-1.925c-1.991-0.581-3.896-1.429-5.658-2.522c-1.732-1.094-3.198-2.561-4.293-4.292
	c-1.276-2.239-1.885-4.798-1.751-7.372c0.04-3.292,1.358-6.439,3.676-8.777c1.45-1.402,3.155-2.513,5.024-3.272
	c2.343-0.93,4.852-1.375,7.372-1.309c2.528-0.009,5.045,0.354,7.468,1.078c2.479,0.79,4.661,2.313,6.256,4.369l-5.178,4.908
	c-0.854-1.293-2.036-2.336-3.426-3.022c-1.565-0.778-3.296-1.167-5.043-1.135c-1.526-0.045-3.048,0.196-4.485,0.712
	c-1.073,0.393-2.051,1.01-2.868,1.81c-0.677,0.673-1.196,1.488-1.521,2.387c-0.275,0.753-0.425,1.546-0.442,2.348
	c-0.111,1.727,0.526,3.417,1.751,4.639c1.271,1.141,2.748,2.029,4.351,2.618c1.851,0.709,3.74,1.313,5.659,1.81
	c1.974,0.51,3.874,1.267,5.659,2.252c1.719,0.943,3.205,2.258,4.35,3.85c1.267,2.018,1.879,4.377,1.752,6.756
	c0.034,2.138-0.413,4.256-1.31,6.198c-0.835,1.782-2.042,3.364-3.541,4.639c-1.55,1.292-3.334,2.271-5.255,2.887
	c-2.088,0.681-4.271,1.019-6.468,1.001c-2.97,0.014-5.915-0.535-8.681-1.617c-2.616-0.987-4.885-2.721-6.525-4.985L590.994,265.285z
	"/>
<path fill="#FFFFFF" d="M626.988,227.597h30.797v6.063h-24.329v14.205h22.616v6.063h-22.616v15.283h25.503v5.986h-31.971V227.597z"
	/>
<path fill="#FFFFFF" d="M668.121,227.597h16.766c2.572-0.083,5.137,0.342,7.545,1.251c1.774,0.691,3.373,1.77,4.678,3.157
	c1.117,1.233,1.935,2.709,2.387,4.312c0.436,1.501,0.662,3.056,0.674,4.62c0.003,1.506-0.271,3-0.809,4.408
	c-0.536,1.414-1.325,2.719-2.329,3.85c-1.052,1.173-2.303,2.151-3.695,2.887c-1.518,0.802-3.18,1.293-4.89,1.444l13.474,21.731
	h-8.084l-12.107-21h-7.198v20.942h-6.468v-47.601H668.121z M674.589,248.597h8.488c1.251-0.002,2.5-0.105,3.734-0.308
	c1.153-0.178,2.268-0.556,3.291-1.116c0.976-0.547,1.782-1.353,2.329-2.329c1.166-2.495,1.166-5.378,0-7.873
	c-0.547-0.976-1.353-1.782-2.329-2.329c-1.023-0.56-2.138-0.938-3.291-1.116c-1.234-0.204-2.483-0.307-3.734-0.308h-8.488v15.398
	V248.597z"/>
<path fill="#FFFFFF" d="M702.71,227.597h7.411l13.993,38.766h0.135l14.532-38.766h7.064l-18.709,47.601h-6.044L702.71,227.597z"/>
<path fill="#FFFFFF" d="M763.496,227.597h5.774l20.461,47.601h-7.546l-4.696-11.722h-22.751l-4.716,11.722h-7.546L763.496,227.597z
	 M775.045,257.816l-8.873-21.885h-0.135l-9.009,21.943h18.036L775.045,257.816z"/>
<path fill="#FFFFFF" d="M799.701,233.66h-15.398v-6.063h37.149v6.063h-15.398v41.538h-6.468V233.66H799.701z"/>
<path fill="#FFFFFF" d="M850.247,276.449c-3.438,0.037-6.848-0.618-10.028-1.925c-2.943-1.206-5.609-3-7.834-5.274
	c-2.21-2.29-3.949-4.991-5.12-7.95c-2.467-6.365-2.467-13.422,0-19.787c1.172-2.958,2.911-5.659,5.12-7.949
	c2.225-2.273,4.891-4.068,7.834-5.274c6.441-2.557,13.615-2.557,20.057,0c2.943,1.207,5.608,3.001,7.834,5.274
	c2.208,2.292,3.946,4.992,5.12,7.949c2.468,6.365,2.468,13.422,0,19.787c-1.173,2.958-2.912,5.659-5.12,7.95
	c-2.229,2.282-4.901,4.083-7.854,5.293C857.081,275.841,853.678,276.488,850.247,276.449z M850.247,270.386
	c4.948,0.088,9.697-1.943,13.051-5.582c1.597-1.75,2.833-3.797,3.638-6.025c1.707-4.766,1.707-9.978,0-14.744
	c-0.805-2.229-2.041-4.276-3.638-6.025c-6.715-7.213-18.005-7.617-25.218-0.902c-0.312,0.29-0.612,0.59-0.902,0.902
	c-1.599,1.748-2.836,3.796-3.638,6.025c-1.707,4.766-1.707,9.978,0,14.744c0.794,2.234,2.023,4.289,3.618,6.044
	c3.362,3.649,8.128,5.682,13.089,5.582V270.386z"/>
<path fill="#FFFFFF" d="M884.374,227.597h16.766c2.572-0.083,5.137,0.342,7.545,1.251c1.774,0.692,3.372,1.77,4.677,3.157
	c1.118,1.233,1.936,2.709,2.387,4.312c0.437,1.501,0.664,3.056,0.674,4.62c0.004,1.506-0.271,3-0.809,4.408
	c-0.535,1.415-1.324,2.719-2.328,3.85c-1.052,1.173-2.303,2.151-3.696,2.887c-1.511,0.8-3.167,1.291-4.87,1.444l13.475,21.731
	h-8.085l-12.106-21h-7.199v20.942h-6.467v-47.601H884.374z M890.842,248.597h8.488c1.251-0.002,2.5-0.105,3.734-0.308
	c1.153-0.178,2.267-0.556,3.291-1.116c0.977-0.546,1.782-1.353,2.329-2.329c1.166-2.495,1.166-5.378,0-7.873
	c-0.546-0.977-1.353-1.783-2.329-2.329c-1.024-0.56-2.138-0.938-3.291-1.116c-1.234-0.204-2.483-0.307-3.734-0.308h-8.488v15.398
	V248.597z"/>
<path fill="#FFFFFF" d="M935.517,254.929l-18.036-27.332h8.22l12.992,20.922l13.474-20.922h7.873l-18.036,27.332v20.269h-6.486
	V254.929z"/>
<path fill="#FFFFFF" d="M176.313,331.018c1.371-0.262,2.762-0.403,4.157-0.424v-28.18c-1.396-0.02-2.787-0.162-4.157-0.423v-2.983
	h13.974c6.525,0,11.549,2.31,11.549,8.623c0.209,3.866-2.486,7.287-6.294,7.988l0,0c4.312,0.73,7.834,3.58,7.834,8.469
	c0,7.045-5.409,9.874-13.243,9.874h-13.82V331.018L176.313,331.018z M185.147,314.098h4.62c5.101,0,7.314-2.06,7.314-5.947
	c0-3.889-2.521-5.562-7.199-5.562h-4.735v11.549V314.098z M185.147,330.382h4.832c5.774,0,8.508-1.925,8.508-6.313
	s-2.406-6.525-8.238-6.525h-5.101v12.878V330.382z"/>
<path fill="#FFFFFF" d="M206.859,321.701c0-8.354,4.947-13.608,11.992-13.608c6.198,0,9.836,4.254,9.836,10.933
	c0,0.636,0,1.925-0.096,2.464h-16.996c0,5.948,2.887,9.624,8.2,9.624c2.322-0.058,4.575-0.808,6.467-2.155l1.636,3.156
	c-2.624,1.748-5.722,2.648-8.874,2.579C211.171,334.636,206.859,329.227,206.859,321.701z M224.048,318.294
	c0-3.734-1.463-6.833-5.621-6.833c-3.734,0-6.198,2.676-6.622,6.833H224.048z"/>
<path fill="#FFFFFF" d="M231.189,331.018c1.352-0.262,2.724-0.403,4.1-0.424V311.98c-1.675-0.211-3.311-0.211-4.1-0.211v-2.945
	c2.883-0.308,5.782-0.448,8.681-0.424l-0.212,4.62h0.096c1.06-2.795,3.642-4.723,6.622-4.947c0.97-0.037,1.936,0.14,2.83,0.52
	l-1.04,4.177c-0.719-0.348-1.512-0.513-2.31-0.48c-3.426,0-5.678,3.733-6.102,4.581v13.724c1.548,0.025,3.093,0.167,4.62,0.424
	v3.002h-13.146v-3.002H231.189z"/>
<path fill="#FFFFFF" d="M248.647,331.018c1.332-0.262,2.685-0.403,4.042-0.424v-30.951c-1.675-0.154-3.311-0.211-4.1-0.211v-3.061
	c1.463-0.154,5.043-0.424,8.777-0.424l-0.25,4.273v30.431c1.205,0.018,2.405,0.159,3.58,0.424v3.002h-12.03v-3.06H248.647z
	 M256.789,321.393l9.104-9.277c-1.042-0.063-2.078-0.205-3.099-0.423v-2.965h11.992v2.945c-1.271,0.238-2.558,0.38-3.85,0.424
	l-13.917,13.704L256.789,321.393z"/>
<path fill="#FFFFFF" d="M278.443,331.018c1.332-0.262,2.685-0.403,4.042-0.424v-30.951c-1.674-0.154-3.311-0.211-4.1-0.211v-3.061
	c1.482-0.154,5.043-0.424,8.777-0.424l-0.27,4.273v30.431c1.357,0.021,2.71,0.162,4.042,0.424v3.002h-12.512v-3.06H278.443z"/>
<path fill="#FFFFFF" d="M291.782,321.701c0-8.354,4.947-13.608,11.992-13.608c6.198,0,9.835,4.254,9.835,10.933
	c0,0.636,0,1.925-0.096,2.464h-16.919c0,5.948,2.887,9.624,8.2,9.624c2.323-0.058,4.575-0.808,6.467-2.155l1.636,3.156
	c-2.624,1.748-5.721,2.648-8.874,2.579C296.094,334.636,291.782,329.227,291.782,321.701z M308.971,318.294
	c0-3.734-1.463-6.833-5.62-6.833c-3.734,0-6.198,2.676-6.622,6.833H308.971z"/>
<path fill="#FFFFFF" d="M316.343,321.701c0-8.354,4.947-13.608,11.992-13.608c6.198,0,9.836,4.254,9.836,10.933
	c0,0.636,0,1.925-0.096,2.464h-16.958c0,5.948,2.887,9.624,8.2,9.624c2.323-0.058,4.575-0.808,6.467-2.155l1.636,3.156
	c-2.624,1.748-5.721,2.648-8.874,2.579C320.654,334.636,316.343,329.227,316.343,321.701z M333.531,318.294
	c0-3.734-1.463-6.833-5.62-6.833c-3.734,0-6.198,2.676-6.622,6.833H333.531z"/>
<path fill="#FFFFFF" d="M263.564,318.583l4.677,7.314c0.865,1.399,1.892,2.691,3.061,3.85c0.979,0.803,2.25,1.159,3.503,0.981
	c0.432,0.013,0.864-0.02,1.29-0.097l0.231,3.177c-0.854,0.186-1.725,0.288-2.599,0.308c-1.96,0.128-3.896-0.499-5.409-1.752
	c-1.12-1.119-2.097-2.373-2.907-3.733l-4.87-7.699L263.564,318.583z"/>
<path fill="#FFFFFF" d="M276.326,333.904"/>
<path fill="#FFFFFF" d="M123.669,327.822c0-6.545,7.122-8.585,13.358-8.585h1.097v-2.425c0-3.427-1.501-4.89-4.831-4.89
	c-2.469,0.053-4.827,1.036-6.603,2.753l-2.136-2.906c2.475-2.282,5.74-3.511,9.104-3.427c5.774,0,8.834,2.599,8.834,8.47v11.433
	c0,0.943,0,1.714,0.096,2.503c1.501,0.153,2.907,0.27,3.85,0.27v2.964c-1.405,0.154-4.62,0.308-7.796,0.308
	c-0.224-1.128-0.327-2.276-0.308-3.426h-0.096c-1.702,2.352-4.431,3.741-7.334,3.734c-3.699,0.287-6.93-2.479-7.217-6.178
	C123.673,328.221,123.667,328.021,123.669,327.822z M138.125,327.822v-5.563h-1.097c-5.101,0-8.777,1.405-8.777,5.352
	c-0.022,1.902,1.501,3.464,3.404,3.486c0.059,0.001,0.117,0,0.176-0.003C134.341,331.116,136.7,329.89,138.125,327.822z"/>
<path fill="#FFFFFF" d="M151.81,327.783v-15.398h-4.1v-3.368h4.1v-7.18h4.369v7.18h6.294v3.426h-6.294v14.918
	c0,2.502,1.04,3.638,3.118,3.638c1.174-0.042,2.311-0.423,3.272-1.098l1.405,3.177c-1.606,1.096-3.523,1.643-5.466,1.559
	C153.985,334.636,151.81,332.095,151.81,327.783z"/>
<path fill="#FFFFFF" d="M90.12,294.292c-1.406,8.888-7.455,16.346-15.86,19.556c-6.09,2.726-13.186,1.875-18.459-2.213h-0.212
	l1.925,7.198l-16.649,6.41l2.675,2.983c4.851,5.408,9.47,11.067,11.799,14.013l13.377-11.992l-4.331-6.063l0.173-0.153
	c6.405,1.947,13.361,0.191,18.074-4.562C89.647,313.142,92.537,303.424,90.12,294.292z"/>
<path fill="#FFFFFF" d="M49.237,287.016l2.733,7.122c0.31,0.936,0.736,1.828,1.271,2.656c2.204,3.394,6.459,4.814,10.259,3.427
	c5.774-2.214,7.853-8.027,4.562-16.592c-2.83-7.354-7.873-11.684-14.456-9.163c-3.834,1.527-6.03,5.577-5.216,9.624
	C48.606,285.083,48.89,286.061,49.237,287.016z"/>
<path fill="#FFFFFF" d="M34.685,308.073l-14.397-37.322l-4.466-4.985L0.019,279.952l40.556,45.04
	C39.42,321.393,37.207,314.637,34.685,308.073z"/>
<path fill="#FFFFFF" d="M42.365,269.154h0.211c1.501-5.236,5.774-9.894,12.762-12.588c12.704-4.889,26.177,1.925,32.433,18.594
	c1.844,4.669,2.778,9.647,2.752,14.667c4.754-5.332,7.815-13.204,7.699-23.579c-0.308-17.728-10.664-28.737-24.291-28.429
	c-7.507,0.192-13.07,3.137-16.265,7.545h-0.27l-0.75-27.659l-21.173,0.52l0.962,35.397L42.365,269.154z"/>
</svg>
